<svg width="32" height="32" viewBox="0 0 32 32" fill="none" xmlns="http://www.w3.org/2000/svg">
<rect width="32" height="32" rx="2.66667" fill="url(#paint0_linear_1_426)"/>
<path d="M16.0048 10.5306C12.9772 10.5306 10.5352 12.9726 10.5352 16.0002C10.5352 19.0277 12.9772 21.4698 16.0048 21.4698C19.0324 21.4698 21.4744 19.0277 21.4744 16.0002C21.4744 12.9726 19.0324 10.5306 16.0048 10.5306ZM16.0048 19.5561C14.0483 19.5561 12.4488 17.9614 12.4488 16.0002C12.4488 14.0389 14.0436 12.4442 16.0048 12.4442C17.9661 12.4442 19.5608 14.0389 19.5608 16.0002C19.5608 17.9614 17.9613 19.5561 16.0048 19.5561ZM22.9739 10.3068C22.9739 11.0161 22.4027 11.5826 21.6981 11.5826C20.9888 11.5826 20.4224 11.0114 20.4224 10.3068C20.4224 9.6023 20.9936 9.03107 21.6981 9.03107C22.4027 9.03107 22.9739 9.6023 22.9739 10.3068ZM26.5965 11.6016C26.5156 9.89268 26.1252 8.37891 24.8733 7.1317C23.6261 5.8845 22.1123 5.49416 20.4033 5.40847C18.642 5.3085 13.3628 5.3085 11.6015 5.40847C9.89732 5.4894 8.38354 5.87974 7.13158 7.12694C5.87962 8.37414 5.49403 9.88792 5.40835 11.5969C5.30838 13.3582 5.30838 18.6374 5.40835 20.3987C5.48927 22.1076 5.87962 23.6214 7.13158 24.8686C8.38354 26.1158 9.89256 26.5062 11.6015 26.5919C13.3628 26.6918 18.642 26.6918 20.4033 26.5919C22.1123 26.5109 23.6261 26.1206 24.8733 24.8686C26.1205 23.6214 26.5108 22.1076 26.5965 20.3987C26.6965 18.6374 26.6965 13.363 26.5965 11.6016ZM24.3211 22.2885C23.9498 23.2216 23.231 23.9404 22.2932 24.3164C20.8889 24.8734 17.5567 24.7449 16.0048 24.7449C14.4529 24.7449 11.116 24.8686 9.71643 24.3164C8.78341 23.9451 8.0646 23.2263 7.68854 22.2885C7.13158 20.8842 7.26011 17.552 7.26011 16.0002C7.26011 14.4483 7.13634 11.1113 7.68854 9.71179C8.05984 8.77877 8.77865 8.05996 9.71643 7.6839C11.1207 7.12694 14.4529 7.25547 16.0048 7.25547C17.5567 7.25547 20.8936 7.1317 22.2932 7.6839C23.2262 8.0552 23.945 8.77401 24.3211 9.71179C24.878 11.1161 24.7495 14.4483 24.7495 16.0002C24.7495 17.552 24.878 20.889 24.3211 22.2885Z" fill="white"/>
<defs>
<linearGradient id="paint0_linear_1_426" x1="0" y1="16" x2="32" y2="16" gradientUnits="userSpaceOnUse">
<stop stop-color="#00BDFF"/>
<stop offset="1" stop-color="#0037F8"/>
</linearGradient>
</defs>
</svg>
