<svg width="32" height="32" viewBox="0 0 32 32" fill="none" xmlns="http://www.w3.org/2000/svg">
<rect width="32" height="32" rx="2.66667" fill="url(#paint0_linear_1_422)"/>
<path d="M20.9007 9.59095C20.1918 8.78167 19.8012 7.74236 19.8015 6.6665H16.597V19.5258C16.5723 20.2216 16.2785 20.8808 15.7775 21.3644C15.2765 21.848 14.6074 22.1183 13.9111 22.1184C12.4385 22.1184 11.2148 20.9154 11.2148 19.4221C11.2148 17.6384 12.9363 16.3006 14.7096 16.8502V13.5732C11.1319 13.0961 8 15.8754 8 19.4221C8 22.8754 10.8622 25.3332 13.9007 25.3332C17.157 25.3332 19.8015 22.6887 19.8015 19.4221V12.8991C21.1009 13.8323 22.661 14.333 24.2607 14.3302V11.1258C24.2607 11.1258 22.3111 11.2191 20.9007 9.59095Z" fill="white"/>
<defs>
<linearGradient id="paint0_linear_1_422" x1="0" y1="16" x2="32" y2="16" gradientUnits="userSpaceOnUse">
<stop stop-color="#00BDFF"/>
<stop offset="1" stop-color="#0037F8"/>
</linearGradient>
</defs>
</svg>
