<svg width="20" height="19" viewBox="0 0 20 19" fill="none" xmlns="http://www.w3.org/2000/svg">
<path d="M11.1858 12.2467C10.6583 13.1933 10.3942 13.6667 10 13.6667C9.60583 13.6667 9.34166 13.1933 8.81416 12.2467L8.6775 12.0017C8.5275 11.7325 8.4525 11.5983 8.33583 11.51C8.21916 11.4208 8.0725 11.3875 7.78166 11.3217L7.51667 11.2617C6.49166 11.03 5.97916 10.9142 5.8575 10.5217C5.735 10.13 6.085 9.72167 6.78333 8.90417L6.96416 8.6925C7.1625 8.46084 7.26166 8.34417 7.30583 8.20084C7.35166 8.0575 7.33666 7.9025 7.30583 7.5925L7.27916 7.31084C7.17333 6.22084 7.12083 5.67584 7.44 5.43334C7.75916 5.19167 8.23833 5.41167 9.19833 5.85334L9.44667 5.96833C9.71917 6.09333 9.855 6.15667 10 6.15667C10.1442 6.15667 10.2808 6.09333 10.5533 5.96833L10.8017 5.85334C11.7617 5.41167 12.2408 5.19084 12.56 5.43334C12.8792 5.675 12.8267 6.22084 12.7208 7.31084L12.6942 7.5925C12.6633 7.9025 12.6483 8.0575 12.6942 8.20084C12.7383 8.34417 12.8375 8.46084 13.0358 8.6925L13.2167 8.90417C13.915 9.72083 14.265 10.1292 14.1425 10.5217C14.0208 10.9133 13.5092 11.03 12.4842 11.2617L12.2183 11.3217C11.9267 11.3883 11.7817 11.4208 11.6642 11.5092C11.5475 11.5983 11.4725 11.7325 11.3225 12.0008L11.1858 12.2467Z" stroke="#F9C805" stroke-width="1.5"/>
<path d="M10 17.8333V16.1667M10 2.83333V1.16667M18.3333 9.5H16.6667M3.33334 9.5H1.66668M15 4.5L14.7142 4.78583M5.28584 14.2142L5.00001 14.5M5.00001 4.5L5.28584 4.78583M14.7142 14.2142L15 14.5" stroke="#F9C805" stroke-width="1.5" stroke-linecap="round"/>
</svg>