<svg width="128" height="40" viewBox="0 0 128 40" fill="none" xmlns="http://www.w3.org/2000/svg">
<g clip-path="url(#clip0_1_324)">
<path d="M37.1337 28.3222C36.9548 27.8198 36.7457 27.3339 36.5467 26.8837C36.24 26.1952 35.9277 25.5093 35.6095 24.826L35.5847 24.7726C32.7739 18.691 29.8308 12.6716 26.7573 6.71845L26.6259 6.46404C26.3063 5.83961 25.9812 5.21806 25.6505 4.59945C25.2537 3.81309 24.7723 3.07232 24.215 2.39026C23.5872 1.64154 22.8029 1.03958 21.9173 0.626777C21.0313 0.213807 20.0655 -0.000128706 19.0879 5.80913e-08C18.1104 0.000128823 17.1447 0.214319 16.2587 0.627522C15.3733 1.04053 14.5891 1.64266 13.9616 2.3915C13.405 3.0737 12.9241 3.81426 12.5273 4.60019C12.1936 5.22451 11.8655 5.85178 11.5429 6.48193L11.4212 6.71796C8.34777 12.6714 5.40455 18.6911 2.59361 24.7729L2.55336 24.8598C2.24068 25.5318 1.93351 26.2064 1.63187 26.8834C1.43311 27.3334 1.22417 27.8191 1.04504 28.3227C0.531816 29.6943 0.36822 31.1721 0.569013 32.6228C0.782229 34.0893 1.37527 35.4745 2.28926 36.6409C3.20412 37.8082 4.40775 38.7164 5.78119 39.276C6.81927 39.6956 7.92881 39.9103 9.04852 39.908C9.40065 39.908 9.75162 39.8876 10.1014 39.8467C11.5176 39.6665 12.8835 39.2057 14.1193 38.4911C15.7399 37.5806 17.3407 36.2462 19.0893 34.3393C20.8378 36.2462 22.4383 37.5806 24.0592 38.4909C25.295 39.2055 26.661 39.6664 28.0771 39.8467C28.4266 39.8872 28.7781 39.9077 29.13 39.908C30.2498 39.9105 31.3593 39.6958 32.3971 39.276C33.7706 38.7165 34.9743 37.8082 35.8893 36.6409C36.8033 35.4745 37.3963 34.0893 37.6095 32.6228C37.81 31.172 37.6465 29.6941 37.1337 28.3222ZM19.0893 30.4009C16.9245 27.6571 15.5357 25.109 15.0483 22.9731C14.8483 22.1728 14.8011 21.342 14.9091 20.5242C14.9943 19.9245 15.2146 19.352 15.5534 18.8499C15.9704 18.3091 16.5061 17.8714 17.1191 17.5704C17.7324 17.2695 18.4064 17.113 19.0896 17.1131C19.7727 17.1132 20.4467 17.2698 21.0599 17.5709C21.6728 17.8719 22.2084 18.3097 22.6254 18.8504C22.9642 19.3526 23.1845 19.9252 23.2696 20.5249C23.377 21.343 23.3296 22.174 23.13 22.9746C22.6421 25.1105 21.2535 27.6578 19.0893 30.4009ZM35.0813 32.2616C34.9323 33.2868 34.5177 34.2553 33.8786 35.0708C33.239 35.887 32.3973 36.5221 31.4368 36.9132C30.4652 37.3025 29.4111 37.4404 28.372 37.3142C27.2921 37.1751 26.2513 36.8196 25.3119 36.269C23.8691 35.4586 22.4088 34.2144 20.7653 32.389C23.3814 29.1634 25.0152 26.1903 25.6199 23.5418C25.8919 22.4283 25.9509 21.2735 25.7939 20.1381C25.6509 19.1597 25.2879 18.2266 24.732 17.4089C24.0801 16.5263 23.23 15.8092 22.2503 15.3152C21.2699 14.821 20.1874 14.5635 19.0895 14.5635C17.9916 14.5635 16.9091 14.821 15.9288 15.3152C14.949 15.809 14.0988 16.526 13.4468 17.4084C12.891 18.2258 12.528 19.1586 12.3849 20.1366C12.2276 21.2716 12.2863 22.4261 12.5578 23.5393C13.1623 26.1885 14.7961 29.1627 17.413 32.3893C15.7698 34.2144 14.3094 35.4586 12.8667 36.2693C11.9272 36.8197 10.8864 37.1751 9.80653 37.3142C8.76737 37.4405 7.71315 37.3025 6.74144 36.9132C5.78127 36.5219 4.93976 35.8869 4.29994 35.071C3.66087 34.2555 3.24631 33.2869 3.09746 32.2616C2.9545 31.2196 3.07634 30.1583 3.45175 29.1758C3.59435 28.7744 3.76156 28.3808 3.96852 27.9127C4.26453 27.2485 4.5659 26.5867 4.87262 25.9274L4.91286 25.8399C7.70834 19.7921 10.6354 13.8059 13.692 7.88566L13.8142 7.64839C14.1273 7.04144 14.4508 6.41361 14.7772 5.80715C15.0897 5.18194 15.4677 4.59171 15.9049 4.0464C16.293 3.57837 16.7796 3.20166 17.3299 2.94308C17.8802 2.6845 18.4807 2.55042 19.0888 2.55037C19.6968 2.55032 20.2974 2.68431 20.8477 2.94281C21.3981 3.2013 21.8847 3.57794 22.2729 4.04591C22.7104 4.59074 23.0886 5.18076 23.4008 5.80591C23.724 6.40715 24.0448 7.02926 24.3551 7.63075L24.4868 7.88591C27.5434 13.8061 30.4704 19.7924 33.2657 25.8404L33.2905 25.8941C33.5961 26.5557 33.9124 27.2394 34.21 27.913C34.4172 28.3816 34.5847 28.7756 34.727 29.1756C35.1024 30.1581 35.2243 31.2193 35.0813 32.2613M52.4709 30.0797C51.4746 30.0797 50.5578 29.88 49.7206 29.4807C48.8833 29.0812 48.166 28.5217 47.5283 27.8029C46.8905 27.0842 46.4122 26.2452 46.0532 25.3262C45.6945 24.3674 45.535 23.3286 45.535 22.2104C45.535 21.0921 45.7345 20.0131 46.0932 19.0544C46.452 18.0956 46.9703 17.2568 47.608 16.4978C48.2458 15.7788 49.003 15.1796 49.8801 14.7801C50.7571 14.3806 51.6739 14.1808 52.7104 14.1808C53.7066 14.1808 54.5837 14.3806 55.3812 14.8201C56.1785 15.2196 56.8162 15.8188 57.3342 16.5776L57.454 14.6203H61.1211V29.6804H57.454L57.3342 27.4834C56.8162 28.2822 56.1385 28.9214 55.2614 29.4007C54.4642 29.8404 53.5074 30.0799 52.4711 30.0799M53.4281 26.4849C54.1457 26.4849 54.7834 26.2852 55.3814 25.9257C55.9394 25.5262 56.3777 25.0069 56.7367 24.3679C57.0555 23.7286 57.215 22.9696 57.215 22.1306C57.215 21.2916 57.0555 20.5326 56.7367 19.8936C56.4177 19.2544 55.9392 18.7351 55.3814 18.3358C54.8232 17.9361 54.1457 17.7763 53.4281 17.7763C52.7106 17.7763 52.0729 17.9761 51.4749 18.3356C50.9168 18.7351 50.4783 19.2544 50.1196 19.8934C49.8006 20.5326 49.6411 21.2916 49.6411 22.1306C49.6411 22.9696 49.8006 23.7286 50.1196 24.3676C50.4383 25.0069 50.9168 25.5262 51.4749 25.9254C52.0729 26.2852 52.7106 26.4849 53.4281 26.4849ZM67.3799 10.5458C67.3799 10.9853 67.3002 11.3848 67.1007 11.7043C66.894 12.0373 66.6059 12.3123 66.2637 12.5033C65.9049 12.7031 65.5064 12.7828 65.1079 12.7828C64.7094 12.7828 64.3104 12.7031 63.9516 12.5033C63.6094 12.3123 63.3213 12.0373 63.1146 11.7043C62.9153 11.3448 62.8356 10.9853 62.8356 10.5458C62.8356 10.1065 62.9151 9.70703 63.1146 9.38727C63.3139 9.02777 63.5929 8.78827 63.9519 8.58852C64.3104 8.38877 64.7091 8.30877 65.1079 8.30877C65.5067 8.30877 65.9049 8.38877 66.2637 8.58852C66.606 8.77944 66.8941 9.05431 67.1009 9.38727C67.2602 9.70703 67.3799 10.0665 67.3799 10.5458ZM63.1146 29.6407V14.5803H67.1007V29.6404L63.1146 29.6407ZM77.7442 18.5351V18.5753C77.5449 18.4953 77.3057 18.4553 77.1062 18.4156C76.8672 18.3756 76.6677 18.3756 76.4286 18.3756C75.3124 18.3756 74.4754 18.6951 73.9173 19.3744C73.3193 20.0534 73.0403 21.0121 73.0403 22.2504V29.6407H69.0542V14.5803H72.7213L72.8411 16.8573C73.2396 16.0583 73.7181 15.4591 74.3956 15.0198C75.0334 14.5801 75.7906 14.3806 76.6676 14.3806C76.9469 14.3806 77.2259 14.4203 77.4652 14.4603C77.5844 14.5003 77.6642 14.5003 77.7442 14.5403V18.5351ZM79.3385 29.6407V8.38852H83.3248V16.4978C83.8828 15.7791 84.5206 15.2196 85.3178 14.7803C86.1154 14.3808 86.9924 14.1411 87.9886 14.1411C88.9851 14.1411 89.9019 14.3408 90.739 14.7403C91.5762 15.1398 92.2937 15.6991 92.9315 16.4181C93.5695 17.1371 94.0478 17.9761 94.4065 18.8951C94.7653 19.8536 94.9245 20.8921 94.9245 22.0106C94.9245 23.1294 94.7253 24.2079 94.3668 25.1667C94.0078 26.1254 93.4898 26.9642 92.8518 27.7232C92.214 28.4424 91.4567 29.0414 90.5797 29.4409C89.7027 29.8404 88.7859 30.0402 87.7496 30.0402C86.7529 30.0402 85.8761 29.8404 85.0788 29.4009C84.2813 29.0014 83.6436 28.4022 83.1255 27.6434L83.0058 29.6007L79.3385 29.6407ZM87.0319 26.4849C87.7496 26.4849 88.3874 26.2852 88.9852 25.9257C89.5432 25.5262 89.9817 25.0069 90.3404 24.3679C90.6595 23.7286 90.819 22.9696 90.819 22.1306C90.819 21.2916 90.6595 20.5326 90.3404 19.8936C89.9817 19.2544 89.5432 18.7351 88.9852 18.3358C88.4272 17.9361 87.7496 17.7763 87.0319 17.7763C86.3144 17.7763 85.6766 17.9761 85.0788 18.3356C84.5206 18.7351 84.0821 19.2544 83.7233 19.8934C83.4045 20.5326 83.245 21.2916 83.245 22.1306C83.245 22.9696 83.4045 23.7286 83.7233 24.3676C84.0423 25.0069 84.5208 25.5262 85.0788 25.9254C85.6766 26.2852 86.3144 26.4849 87.0319 26.4849ZM96.4396 29.6407V14.5803H100.107L100.226 16.5378C100.665 15.8186 101.263 15.2593 102.02 14.8201C102.777 14.3806 103.654 14.1808 104.651 14.1808C105.767 14.1808 106.724 14.4603 107.521 14.9798C108.358 15.4991 108.996 16.2581 109.435 17.2168C109.873 18.1756 110.112 19.3339 110.112 20.6524V29.6804H106.126V21.1716C106.126 20.1331 105.887 19.2941 105.409 18.6946C104.93 18.0958 104.292 17.7761 103.455 17.7761C102.857 17.7761 102.339 17.8958 101.861 18.1756C101.422 18.4551 101.063 18.8146 100.784 19.3341C100.505 19.8134 100.386 20.4124 100.386 21.0119V29.6404L96.4396 29.6407ZM112.105 29.6407V8.38852H116.091V16.4978C116.65 15.7791 117.287 15.2196 118.085 14.7803C118.882 14.3808 119.759 14.1411 120.755 14.1411C121.752 14.1411 122.669 14.3408 123.506 14.7403C124.343 15.1398 125.06 15.6991 125.698 16.4181C126.337 17.1371 126.814 17.9761 127.173 18.8951C127.533 19.8536 127.691 20.8921 127.691 22.0106C127.691 23.1294 127.493 24.2079 127.133 25.1667C126.774 26.1254 126.257 26.9642 125.618 27.7232C124.981 28.4424 124.223 29.0414 123.346 29.4409C122.469 29.8404 121.553 30.0402 120.516 30.0402C119.52 30.0402 118.643 29.8404 117.846 29.4009C117.048 29.0014 116.411 28.4022 115.892 27.6434L115.773 29.6007L112.105 29.6407ZM119.839 26.4849C120.556 26.4849 121.194 26.2852 121.792 25.9257C122.35 25.5262 122.788 25.0069 123.147 24.3679C123.466 23.7286 123.626 22.9696 123.626 22.1306C123.626 21.2916 123.466 20.5326 123.147 19.8936C122.828 19.2544 122.35 18.7351 121.792 18.3358C121.234 17.9361 120.556 17.7763 119.839 17.7763C119.121 17.7763 118.483 17.9761 117.885 18.3356C117.327 18.7351 116.889 19.2544 116.53 19.8934C116.171 20.5326 116.052 21.2916 116.052 22.1306C116.052 22.9696 116.211 23.7286 116.53 24.3676C116.849 25.0069 117.328 25.5262 117.885 25.9254C118.483 26.2852 119.081 26.4849 119.839 26.4849Z" fill="#FF385C"/>
</g>
<defs>
<clipPath id="clip0_1_324">
<rect width="127.205" height="40" fill="white" transform="translate(0.487854)"/>
</clipPath>
</defs>
</svg>
