<svg width="81" height="40" viewBox="0 0 81 40" fill="none" xmlns="http://www.w3.org/2000/svg">
<g clip-path="url(#clip0_1_310)">
<path d="M14.6505 1.31531C10.6539 2.70178 7.20718 5.33333 4.81671 8.82344C2.42623 12.3136 1.21796 16.4783 1.36937 20.7058C1.52077 24.9334 3.02388 29.001 5.65791 32.3112C8.29194 35.6213 11.918 37.9996 16.0036 39.0966C19.3159 39.9512 22.7861 39.9888 26.1161 39.2059C29.1327 38.5283 31.9217 37.079 34.2099 34.9997C36.5914 32.7695 38.32 29.9324 39.2099 26.7934C40.1771 23.3799 40.3492 19.7901 39.713 16.2997H21.113V24.0153H31.8849C31.6696 25.2459 31.2082 26.4204 30.5285 27.4685C29.8487 28.5167 28.9644 29.4169 27.9286 30.1153C26.6132 30.9854 25.1305 31.5709 23.5755 31.8341C22.0159 32.1241 20.4163 32.1241 18.8567 31.8341C17.2761 31.5073 15.7808 30.8549 14.4661 29.9184C12.3541 28.4234 10.7682 26.2995 9.93486 23.8497C9.0874 21.354 9.0874 18.6485 9.93486 16.1528C10.5281 14.4035 11.5087 12.8107 12.8036 11.4934C14.2855 9.95827 16.1615 8.86093 18.226 8.3218C20.2904 7.78267 22.4635 7.8226 24.5067 8.43719C26.1029 8.92716 27.5625 9.78324 28.7692 10.9372C29.9838 9.72886 31.1963 8.5174 32.4067 7.30281C33.0317 6.64969 33.713 6.02781 34.3286 5.35906C32.4866 3.64493 30.3245 2.31112 27.9661 1.43406C23.6714 -0.125343 18.9723 -0.16725 14.6505 1.31531Z" fill="white"/>
<path d="M14.6532 1.31561C18.9746 -0.16796 23.6738 -0.127156 27.9688 1.43124C30.3276 2.31425 32.4887 3.65448 34.3282 5.37499C33.7032 6.04374 33.0438 6.66874 32.4063 7.31874C31.1938 8.52915 29.9823 9.7354 28.7719 10.9375C27.5652 9.78354 26.1056 8.92746 24.5094 8.43749C22.4668 7.82074 20.2939 7.77851 18.2289 8.31543C16.1639 8.85235 14.2866 9.94768 12.8032 11.4812C11.5083 12.7985 10.5276 14.3913 9.93442 16.1406L3.4563 11.125C5.77507 6.52674 9.78989 3.00944 14.6532 1.31561Z" fill="#E33629"/>
<path d="M1.73441 16.0942C2.08261 14.3686 2.66068 12.6974 3.45317 11.1255L9.93129 16.1536C9.08384 18.6493 9.08384 21.3548 9.93129 23.8505C7.77296 25.5172 5.61358 27.1922 3.45317 28.8755C1.46926 24.9265 0.864204 20.4271 1.73441 16.0942Z" fill="#F8BD00"/>
<path d="M21.1139 16.2964H39.7139C40.3502 19.7868 40.1781 23.3766 39.2108 26.7901C38.3209 29.9291 36.5923 32.7662 34.2108 34.9964C32.1202 33.3651 30.0202 31.7464 27.9296 30.1151C28.9661 29.416 29.8507 28.5148 30.5305 27.4656C31.2103 26.4163 31.6713 25.2406 31.8858 24.0089H21.1139C21.1108 21.4401 21.1139 18.8683 21.1139 16.2964Z" fill="#587DBD"/>
<path d="M3.45142 28.8751C5.61183 27.2084 7.77121 25.5334 9.92954 23.8501C10.7646 26.3007 12.3527 28.4248 14.467 29.9188C15.7858 30.8509 17.2843 31.498 18.867 31.8188C20.4266 32.1088 22.0262 32.1088 23.5858 31.8188C25.1408 31.5556 26.6235 30.9702 27.9389 30.1001C30.0295 31.7313 32.1295 33.3501 34.2202 34.9813C31.9323 37.0617 29.1434 38.5122 26.1264 39.1907C22.7964 39.9736 19.3262 39.936 16.0139 39.0813C13.3942 38.3819 10.9473 37.1488 8.82642 35.4595C6.58161 33.6772 4.74815 31.4313 3.45142 28.8751Z" fill="#319F43"/>
</g>
<g clip-path="url(#clip1_1_310)">
<path d="M50.6722 18.0967H46.0597V19.4655H49.3316C49.1691 21.3842 47.5722 22.203 46.066 22.203C45.0963 22.203 44.1663 21.8178 43.4806 21.1321C42.795 20.4464 42.4097 19.5164 42.4097 18.5467C42.4097 17.577 42.795 16.647 43.4806 15.9614C44.1663 15.2757 45.0963 14.8905 46.066 14.8905C46.9851 14.889 47.869 15.2442 48.5316 15.8811L49.491 14.8873C48.5641 13.9917 47.3203 13.4996 46.0316 13.5186C45.3713 13.5233 44.7184 13.658 44.1102 13.9151C43.5019 14.1721 42.9503 14.5465 42.4867 15.0167C42.0232 15.487 41.6568 16.0439 41.4084 16.6557C41.1601 17.2676 41.0347 17.9224 41.0394 18.5827C41.0442 19.243 41.1789 19.8959 41.4359 20.5041C41.693 21.1123 42.0673 21.664 42.5376 22.1276C43.0078 22.5911 43.5647 22.9575 44.1766 23.2059C44.7884 23.4542 45.4432 23.5796 46.1035 23.5748C48.7941 23.5748 50.766 21.7311 50.766 19.003C50.7719 18.6987 50.7436 18.3947 50.6816 18.0967H50.6722Z" fill="#4885ED"/>
<path d="M54.4485 17.1061C53.8105 17.1086 53.1875 17.2999 52.658 17.6559C52.1285 18.0119 51.7163 18.5167 51.4733 19.1066C51.2303 19.6965 51.1674 20.3452 51.2924 20.9708C51.4175 21.5964 51.725 22.171 52.1761 22.6222C52.6273 23.0733 53.2019 23.3808 53.8275 23.5059C54.4532 23.631 55.1018 23.568 55.6917 23.325C56.2817 23.082 56.7864 22.6698 57.1424 22.1403C57.4984 21.6109 57.6897 20.9879 57.6922 20.3499C57.699 19.922 57.6197 19.4972 57.4591 19.1006C57.2984 18.704 57.0597 18.3437 56.7572 18.0411C56.4546 17.7386 56.0943 17.4999 55.6977 17.3393C55.3011 17.1786 54.8763 17.0994 54.4485 17.1061ZM54.4672 18.3749C54.8605 18.3517 55.2516 18.4472 55.5899 18.6491C55.9282 18.8509 56.1981 19.1497 56.3645 19.5068C56.5309 19.8639 56.5862 20.2627 56.5231 20.6516C56.4601 21.0405 56.2817 21.4014 56.011 21.6877C55.7403 21.9739 55.3899 22.1722 55.0051 22.2568C54.6204 22.3414 54.2191 22.3085 53.8533 22.1623C53.4875 22.0161 53.174 21.7633 52.9536 21.4368C52.7332 21.1103 52.616 20.7251 52.6172 20.3311C52.6041 20.0797 52.6422 19.8282 52.7291 19.592C52.8161 19.3557 52.9501 19.1396 53.1231 18.9566C53.2961 18.7737 53.5044 18.6278 53.7355 18.5278C53.9665 18.4278 54.2155 18.3758 54.4672 18.3749Z" fill="#DB3236"/>
<path d="M61.517 17.1061C60.8789 17.1079 60.2556 17.2987 59.7257 17.6543C59.1958 18.0099 58.7831 18.5145 58.5396 19.1044C58.2961 19.6942 58.2328 20.343 58.3575 20.9688C58.4822 21.5947 58.7895 22.1696 59.2405 22.621C59.6915 23.0725 60.2661 23.3803 60.8918 23.5056C61.5175 23.6309 62.1664 23.5682 62.7565 23.3253C63.3466 23.0823 63.8515 22.6701 64.2077 22.1406C64.5638 21.6111 64.7552 20.988 64.7576 20.3498C64.7644 19.9222 64.6852 19.4977 64.5248 19.1013C64.3643 18.7049 64.1259 18.3448 63.8237 18.0422C63.5215 17.7397 63.1616 17.501 62.7653 17.3401C62.3691 17.1793 61.9446 17.0997 61.517 17.1061ZM61.5358 18.3748C61.929 18.3516 62.3202 18.4472 62.6585 18.649C62.9968 18.8509 63.2667 19.1497 63.4331 19.5068C63.5995 19.8639 63.6547 20.2627 63.5917 20.6516C63.5286 21.0404 63.3502 21.4014 63.0795 21.6876C62.8089 21.9738 62.4584 22.1721 62.0737 22.2568C61.6889 22.3414 61.2876 22.3085 60.9218 22.1622C60.556 22.016 60.2426 21.7633 60.0222 21.4367C59.8018 21.1102 59.6846 20.725 59.6858 20.3311C59.6726 20.0796 59.7107 19.8282 59.7977 19.5919C59.8846 19.3557 60.0187 19.1395 60.1917 18.9566C60.3646 18.7737 60.573 18.6278 60.804 18.5278C61.0351 18.4278 61.284 18.3757 61.5358 18.3748Z" fill="#F4C20D"/>
<path d="M68.4446 17.1089C66.7071 17.1089 65.3414 18.6308 65.3414 20.337C65.3286 21.1708 65.6431 21.9764 66.2174 22.5811C66.7916 23.1857 67.58 23.5412 68.4133 23.5714C68.7496 23.5897 69.0854 23.5282 69.3934 23.3919C69.7014 23.2555 69.9727 23.0483 70.1852 22.787V23.412C70.1852 24.5276 69.5071 25.1933 68.4852 25.1933C68.1288 25.1903 67.7814 25.0811 67.4875 24.8796C67.1935 24.678 66.9664 24.3934 66.8352 24.062L65.5852 24.5808C65.827 25.1499 66.2322 25.6346 66.7495 25.9734C67.2668 26.3121 67.8731 26.4898 68.4914 26.4839C70.2196 26.4839 71.5352 25.3964 71.5352 23.1151V17.3026H70.1883V17.8495C69.9674 17.6087 69.6975 17.4179 69.3967 17.2902C69.0959 17.1624 68.7713 17.1006 68.4446 17.1089ZM68.5696 18.3745C69.4227 18.3745 70.2946 19.1026 70.2946 20.3433C70.2946 21.5839 69.4227 22.3026 68.5508 22.3026C68.3043 22.2964 68.0615 22.2405 67.837 22.1384C67.6125 22.0364 67.4108 21.8901 67.244 21.7085C67.0772 21.5268 66.9487 21.3134 66.8661 21.081C66.7835 20.8486 66.7486 20.602 66.7633 20.3558C66.7633 19.1058 67.6571 18.3745 68.5696 18.3745Z" fill="#4885ED"/>
<path d="M77.5679 17.0996C75.9304 17.0996 74.5523 18.4027 74.5523 20.3277C74.5361 20.752 74.6066 21.1751 74.7593 21.5712C74.912 21.9673 75.1439 22.3281 75.4407 22.6317C75.7375 22.9352 76.0931 23.1751 76.4857 23.3367C76.8783 23.4983 77.2997 23.5782 77.7242 23.5715C78.2566 23.5725 78.7812 23.4439 79.2527 23.1967C79.7243 22.9495 80.1285 22.5912 80.4304 22.1527L79.3117 21.409C79.1496 21.684 78.9177 21.9113 78.6395 22.0677C78.3612 22.2241 78.0465 22.3041 77.7273 22.2996C77.3958 22.3133 77.0677 22.2275 76.7854 22.0532C76.503 21.8788 76.2793 21.624 76.1429 21.3215L80.4773 19.5246L80.2523 18.9965C80.0457 18.4479 79.679 17.974 79.1998 17.6363C78.7206 17.2986 78.151 17.1127 77.5648 17.1027L77.5679 17.0996ZM77.6242 18.3496C77.8687 18.3391 78.1112 18.3984 78.3231 18.5207C78.5351 18.6431 78.7078 18.8233 78.8211 19.0402L75.9273 20.2496C75.913 20.0132 75.9456 19.7763 76.0233 19.5526C76.1009 19.3289 76.2221 19.1227 76.3799 18.9461C76.5377 18.7694 76.7288 18.6258 76.9424 18.5234C77.156 18.421 77.3877 18.362 77.6242 18.3496Z" fill="#DB3236"/>
<path d="M72.4895 23.3807H73.9145V13.8525H72.4895V23.3807Z" fill="#3CBA54"/>
</g>
<defs>
<clipPath id="clip0_1_310">
<rect width="40" height="40" fill="white" transform="translate(0.719177)"/>
</clipPath>
<clipPath id="clip1_1_310">
<rect width="40" height="40" fill="white" transform="translate(40.7192)"/>
</clipPath>
</defs>
</svg>
