<svg width="187" height="40" viewBox="0 0 187 40" fill="none" xmlns="http://www.w3.org/2000/svg">
<g clip-path="url(#clip0_1_302)">
<path d="M186.179 17.9815V14.707H182.113V9.61678L181.976 9.6586L178.157 10.8273L178.082 10.8502V14.707H172.054V12.5586C172.054 11.5582 172.278 10.7924 172.719 10.2822C173.157 9.77751 173.783 9.52115 174.581 9.52115C175.156 9.52115 175.75 9.65642 176.349 9.92296L176.499 9.98987V6.54187L176.428 6.51642C175.87 6.31533 175.111 6.2146 174.17 6.2146C172.984 6.2146 171.906 6.47242 170.966 6.98405C170.026 7.49569 169.286 8.22733 168.768 9.15714C168.252 10.0859 167.99 11.1582 167.99 12.3451V14.7073H165.159V17.9819H167.99V31.7757H172.054V17.9815H178.082V26.7473C178.082 30.3575 179.785 32.1873 183.143 32.1873C183.724 32.1839 184.302 32.1196 184.869 31.9953C185.473 31.8655 185.884 31.7357 186.126 31.5971L186.179 31.5655V28.2608L186.014 28.3702C185.793 28.5175 185.519 28.6375 185.197 28.7266C184.873 28.8175 184.603 28.8633 184.394 28.8633C183.607 28.8633 183.025 28.6513 182.664 28.2328C182.299 27.811 182.113 27.0724 182.113 26.0397V17.9815H186.179ZM156.082 28.8637C154.607 28.8637 153.444 28.3742 152.624 27.411C151.799 26.4422 151.381 25.0619 151.381 23.3073C151.381 21.4975 151.799 20.0811 152.624 19.0953C153.444 18.1164 154.596 17.6193 156.049 17.6193C157.458 17.6193 158.58 18.0939 159.383 19.031C160.191 19.9724 160.601 21.3775 160.601 23.2084C160.601 25.0619 160.215 26.4859 159.455 27.4382C158.701 28.3837 157.566 28.8637 156.082 28.8637ZM156.263 14.2957C153.448 14.2957 151.213 15.1204 149.619 16.747C148.026 18.3739 147.219 20.6248 147.219 23.4386C147.219 26.111 148.007 28.2604 149.562 29.8266C151.117 31.3928 153.233 32.1866 155.851 32.1866C158.579 32.1866 160.77 31.3506 162.364 29.7015C163.956 28.0542 164.764 25.8244 164.764 23.0761C164.764 20.3622 164.006 18.1968 162.512 16.6411C161.017 15.0848 158.914 14.2957 156.263 14.2957ZM140.665 14.2957C138.751 14.2957 137.167 14.7855 135.957 15.751C134.74 16.7222 134.123 17.9964 134.123 19.5379C134.123 20.339 134.256 21.0506 134.519 21.6542C134.782 22.2601 135.191 22.7931 135.733 23.2408C136.271 23.6848 137.102 24.1499 138.204 24.6226C139.129 25.0037 139.82 25.3262 140.258 25.5801C140.687 25.8291 140.991 26.0793 141.163 26.323C141.33 26.5611 141.415 26.8877 141.415 27.2902C141.415 28.4371 140.556 28.995 138.789 28.995C138.133 28.995 137.386 28.8582 136.567 28.5884C135.754 28.3224 134.987 27.9333 134.292 27.4346L134.123 27.3139V31.2266L134.185 31.2557C134.76 31.5211 135.485 31.7448 136.34 31.9211C137.193 32.0971 137.967 32.187 138.641 32.187C140.718 32.187 142.391 31.695 143.612 30.7237C144.841 29.7455 145.463 28.4419 145.463 26.8466C145.463 25.6964 145.128 24.7095 144.467 23.9139C143.811 23.1248 142.672 22.4001 141.084 21.7597C139.819 21.2517 139.008 20.8302 138.674 20.5066C138.351 20.1939 138.187 19.7517 138.187 19.1921C138.187 18.6953 138.389 18.2979 138.804 17.9757C139.223 17.6521 139.804 17.4873 140.534 17.4873C141.211 17.4873 141.904 17.5942 142.593 17.8037C143.282 18.0135 143.886 18.2946 144.391 18.6379L144.557 18.7513V15.0393L144.493 15.0121C144.028 14.8121 143.413 14.6411 142.668 14.503C141.925 14.3655 141.251 14.2957 140.665 14.2957ZM123.527 28.8637C122.052 28.8637 120.889 28.3742 120.069 27.411C119.244 26.4422 118.827 25.0619 118.827 23.3073C118.827 21.4975 119.245 20.0811 120.07 19.0953C120.89 18.1164 122.041 17.6193 123.494 17.6193C124.903 17.6193 126.025 18.0939 126.829 19.031C127.636 19.9724 128.046 21.3775 128.046 23.2084C128.046 25.0619 127.661 26.4859 126.901 27.4382C126.146 28.3837 125.011 28.8637 123.527 28.8637ZM123.708 14.2957C120.893 14.2957 118.658 15.1204 117.065 16.747C115.472 18.3739 114.664 20.6248 114.664 23.4386C114.664 26.1121 115.453 28.2604 117.007 29.8266C118.562 31.3928 120.678 32.1866 123.297 32.1866C126.024 32.1866 128.216 31.3506 129.81 29.7015C131.402 28.0542 132.21 25.8244 132.21 23.0761C132.21 20.3622 131.452 18.1968 129.957 16.6411C128.462 15.0848 126.359 14.2957 123.708 14.2957ZM108.494 17.663V14.707H104.479V31.775H108.494V23.0437C108.494 21.559 108.83 20.3393 109.495 19.4182C110.15 18.5081 111.024 18.0466 112.091 18.0466C112.453 18.0466 112.859 18.1062 113.298 18.2244C113.733 18.3415 114.049 18.4688 114.235 18.6026L114.403 18.7251V14.6779L114.338 14.6499C113.964 14.491 113.435 14.411 112.766 14.411C111.757 14.411 110.854 14.735 110.081 15.3731C109.402 15.9342 108.911 16.7037 108.536 17.663H108.494ZM97.2891 14.2957C95.4473 14.2957 93.804 14.691 92.4066 15.4695C91.0066 16.2495 89.9233 17.3641 89.1866 18.7804C88.4531 20.1939 88.0808 21.8448 88.0808 23.6859C88.0808 25.2982 88.4419 26.7782 89.1553 28.0822C89.8695 29.3888 90.8804 30.411 92.1597 31.1201C93.4375 31.8281 94.9142 32.187 96.5488 32.187C98.4568 32.187 100.086 31.8055 101.392 31.0535L101.445 31.023V27.3448L101.276 27.4681C100.675 27.9034 100.013 28.248 99.312 28.4906C98.6022 28.7382 97.9557 28.8633 97.3884 28.8633C95.8128 28.8633 94.5484 28.3706 93.6302 27.399C92.7102 26.4255 92.2437 25.0593 92.2437 23.3397C92.2437 21.6095 92.7302 20.2081 93.6888 19.1735C94.6448 18.1426 95.9117 17.6197 97.4546 17.6197C98.7742 17.6197 100.06 18.0666 101.276 18.9491L101.445 19.0713V15.1957L101.391 15.1651C100.932 14.9088 100.308 14.6971 99.5331 14.5368C98.7615 14.3768 98.0066 14.2957 97.2891 14.2957ZM85.3157 14.707H81.3004V31.775H85.3157V14.707ZM83.3491 7.43605C82.6884 7.43605 82.112 7.66114 81.6386 8.1066C81.163 8.55387 80.9215 9.11678 80.9215 9.78078C80.9215 10.4346 81.16 10.987 81.6306 11.4222C82.0986 11.8561 82.6768 12.0761 83.3491 12.0761C84.0211 12.0761 84.6015 11.8561 85.075 11.423C85.5513 10.987 85.7931 10.4346 85.7931 9.78078C85.7931 9.14005 85.5579 8.5826 85.0946 8.12478C84.6317 7.66769 84.044 7.43605 83.3491 7.43605ZM73.3317 13.4481V31.7746H77.4291V7.9586H71.7582L64.5499 25.6484L57.555 7.9586H51.6531V31.775H55.5037V13.4462H55.636L63.0226 31.775H65.9281L73.1993 13.4477L73.3317 13.4481Z" fill="#706D6E"/>
<path d="M18.8848 18.8869H-0.00213242V0H18.8848V18.8869Z" fill="#F1511B"/>
<path d="M39.7393 18.8869H20.8524V0H39.7393V18.8869Z" fill="#80CC28"/>
<path d="M18.8844 39.7475H-0.00213242V20.8606H18.8844V39.7475Z" fill="#00ADEF"/>
<path d="M39.7393 39.7475H20.8524V20.8606H39.7393V39.7475Z" fill="#FBBC09"/>
</g>
<defs>
<clipPath id="clip0_1_302">
<rect width="186.182" height="40" fill="white"/>
</clipPath>
</defs>
</svg>
