<svg width="158" height="40" viewBox="0 0 158 40" fill="none" xmlns="http://www.w3.org/2000/svg">
<g clip-path="url(#clip0_1_326)">
<path d="M50.8003 31.3489L52.7655 26.7843C54.8892 28.3692 57.7101 29.1935 60.4997 29.1935C62.56 29.1935 63.8597 28.4009 63.8597 27.1966C63.828 23.8366 51.5292 26.4673 51.4341 18.0357C51.4024 13.7566 55.2064 10.46 60.5948 10.46C63.7963 10.46 66.9978 11.2523 69.28 13.059L67.4415 17.7187C65.3495 16.3873 62.7504 15.4366 60.2778 15.4366C58.5978 15.4366 57.4886 16.2289 57.4886 17.2433C57.5203 20.54 69.9141 18.7332 70.0409 26.7843C70.0409 31.1587 66.3323 34.2335 61.0071 34.2335C57.108 34.2335 53.5261 33.3141 50.8003 31.3489ZM126.21 25.136L131.63 28.1473C129.601 31.7926 125.734 34.2335 121.265 34.2335C114.703 34.2335 109.378 28.9083 109.378 22.3467C109.378 15.7852 114.703 10.46 121.265 10.46C125.702 10.46 129.601 12.9323 131.63 16.5461L126.21 19.5572C125.227 17.8455 123.388 16.6729 121.265 16.6729C118.126 16.6729 115.591 19.2086 115.591 22.3467C115.591 25.4849 118.126 28.0206 121.265 28.0206C123.388 28.0206 125.227 26.8477 126.209 25.136M72.7668 0.601807H79.5501V33.7895H72.7668V0.601807ZM134.292 0.601807H141.076V20.096L148.746 10.9353H157.051L147.574 21.9661L157.812 33.7895H149.127L141.076 23.8366V33.7895H134.292V0.601807ZM99.7101 25.1997V19.5889C98.7274 17.9406 96.6988 16.6729 94.4166 16.6729C91.2781 16.6729 88.7428 19.2086 88.7428 22.3467C88.7428 25.4849 91.2781 28.0206 94.4166 28.0206C96.6988 28.0206 98.7274 26.8163 99.7101 25.1997ZM99.7101 10.9353H106.494V33.7578H99.7101V31.0637C98.6006 32.9338 95.8428 34.2335 92.9584 34.2335C86.9991 34.2335 82.308 28.9083 82.308 22.315C82.308 15.7218 86.9991 10.46 92.9584 10.46C95.8428 10.46 98.6006 11.7597 99.7101 13.6298V10.9353Z" fill="white"/>
<path d="M8.86581 25.1679C8.86581 27.4817 6.99565 29.3522 4.6815 29.3522C4.13188 29.3527 3.58754 29.2448 3.07966 29.0347C2.57177 28.8247 2.11031 28.5165 1.72168 28.1278C1.33305 27.7391 1.02489 27.2777 0.814828 26.7698C0.604766 26.2619 0.496933 25.7175 0.4975 25.1679C0.4975 22.854 2.36765 20.9839 4.6815 20.9839H8.86581V25.1679ZM10.9578 25.1679C10.9578 22.854 12.828 20.9839 15.1418 20.9839C17.4557 20.9839 19.3261 22.854 19.3261 25.1679V35.6282C19.3261 37.942 17.456 39.8125 15.1418 39.8125C14.5922 39.813 14.0479 39.7051 13.5401 39.495C13.0322 39.2849 12.5708 38.9766 12.1822 38.588C11.7936 38.1993 11.4855 37.7379 11.2754 37.23C11.0654 36.7221 10.9575 36.1778 10.9581 35.6282L10.9578 25.1679Z" fill="#E01E5A"/>
<path d="M15.1393 8.36831C14.5897 8.36879 14.0454 8.26089 13.5376 8.05077C13.0297 7.84066 12.5683 7.53245 12.1797 7.1438C11.7911 6.75514 11.483 6.29367 11.2729 5.78579C11.0629 5.27791 10.9551 4.7336 10.9556 4.184C10.9553 1.87015 12.8255 0 15.1393 0C17.4532 0 19.3236 1.87015 19.3236 4.184V8.36831H15.1393ZM15.1393 10.492C17.4532 10.492 19.3236 12.3622 19.3236 14.676C19.3236 16.9898 17.4535 18.8603 15.1393 18.8603H4.64732C4.0977 18.8608 3.55336 18.753 3.04548 18.5429C2.5376 18.3328 2.07613 18.0246 1.6875 17.6359C1.29887 17.2472 0.990709 16.7858 0.780648 16.2779C0.570587 15.77 0.462753 15.2256 0.46332 14.676C0.46332 12.3622 2.33347 10.4923 4.64732 10.4923L15.1393 10.492Z" fill="#36C5F0"/>
<path d="M31.91 14.676C31.91 12.3622 33.7801 10.492 36.094 10.492C38.4078 10.492 40.2783 12.3622 40.2783 14.676C40.2783 16.9898 38.4081 18.8603 36.094 18.8603H31.91V14.676ZM29.8176 14.676C29.8176 16.9898 27.9478 18.8603 25.6336 18.8603C25.084 18.8608 24.5397 18.753 24.0318 18.5429C23.5239 18.3328 23.0625 18.0246 22.6738 17.6359C22.2852 17.2472 21.977 16.7858 21.767 16.2779C21.5569 15.77 21.4491 15.2256 21.4496 14.676V4.184C21.4496 1.87015 23.3198 0 25.6336 0C27.9475 0 29.818 1.87015 29.818 4.184L29.8176 14.676Z" fill="#2EB67D"/>
<path d="M25.6336 31.4442C27.9475 31.4442 29.818 33.3143 29.818 35.6282C29.818 37.942 27.9478 39.8125 25.6336 39.8125C25.084 39.813 24.5397 39.7052 24.0318 39.4951C23.5239 39.285 23.0625 38.9768 22.6738 38.5881C22.2852 38.1994 21.977 37.738 21.767 37.2301C21.5569 36.7222 21.4491 36.1778 21.4496 35.6282V31.4442H25.6336ZM25.6336 29.3519C25.084 29.3524 24.5397 29.2446 24.0319 29.0345C23.524 28.8244 23.0626 28.5162 22.6739 28.1276C22.2853 27.739 21.9771 27.2775 21.7671 26.7697C21.557 26.2618 21.4491 25.7175 21.4496 25.1679C21.4496 22.854 23.3198 20.9839 25.6336 20.9839H36.126C38.4398 20.9839 40.31 22.854 40.31 25.1679C40.31 27.4817 38.4398 29.3522 36.1256 29.3522L25.6336 29.3519Z" fill="#ECB22E"/>
</g>
<defs>
<clipPath id="clip0_1_326">
<rect width="157.538" height="40" fill="white" transform="translate(0.461548)"/>
</clipPath>
</defs>
</svg>
