<svg width="129" height="40" viewBox="0 0 129 40" fill="none" xmlns="http://www.w3.org/2000/svg">
<g clip-path="url(#clip0_1_308)">
<path d="M20.864 0C9.86626 0 0.950256 8.91575 0.950256 19.9135C0.950256 30.9118 9.86626 39.8268 20.864 39.8268C31.863 39.8268 40.778 30.9118 40.778 19.9135C40.778 8.9165 31.863 0.001 20.8638 0.001L20.864 0ZM29.9965 28.721C29.9115 28.8603 29.7999 28.9814 29.6681 29.0775C29.5362 29.1735 29.3867 29.2426 29.2281 29.2809C29.0695 29.3191 28.9049 29.3257 28.7438 29.3002C28.5826 29.2747 28.4281 29.2178 28.289 29.1325C23.6135 26.2765 17.7275 25.6297 10.7958 27.2135C10.4748 27.2865 10.138 27.2291 9.85932 27.0538C9.58068 26.8786 9.38301 26.5999 9.30976 26.279C9.27332 26.1201 9.26857 25.9556 9.29578 25.7949C9.32299 25.6341 9.38162 25.4804 9.46833 25.3423C9.55503 25.2043 9.6681 25.0847 9.80107 24.9904C9.93405 24.8961 10.0843 24.8289 10.2433 24.7927C17.829 23.0595 24.3358 23.8057 29.585 27.0138C29.7242 27.0988 29.8452 27.2105 29.9413 27.3423C30.0373 27.4742 30.1063 27.6237 30.1445 27.7823C30.1827 27.9408 30.1893 28.1054 30.1638 28.2665C30.1384 28.4276 30.0815 28.5822 29.9963 28.7213M32.4338 23.299C31.984 24.0295 31.0283 24.2602 30.298 23.8107C24.9455 20.5207 16.7858 19.5677 10.4545 21.4897C10.0604 21.609 9.63509 21.567 9.27188 21.3731C8.90867 21.1791 8.63719 20.8491 8.51701 20.4552C8.3982 20.0612 8.44046 19.6361 8.63451 19.2732C8.82857 18.9103 9.15859 18.639 9.55226 18.519C16.7845 16.3245 25.7753 17.3875 31.9223 21.1647C32.6523 21.6142 32.883 22.5702 32.4335 23.2992M32.6425 17.653C26.2253 13.8405 15.6358 13.49 9.50801 15.35C8.52401 15.6485 7.48351 15.093 7.18551 14.109C7.04214 13.6363 7.09236 13.126 7.32512 12.6903C7.55788 12.2546 7.95413 11.9291 8.42676 11.7855C15.461 9.65 27.1548 10.0625 34.544 14.4493C34.7546 14.5738 34.9386 14.7387 35.0854 14.9345C35.2322 15.1303 35.3389 15.3531 35.3994 15.5902C35.4599 15.8273 35.473 16.074 35.4381 16.3162C35.4031 16.5583 35.3207 16.7912 35.1955 17.0015C34.6725 17.8865 33.5263 18.1782 32.644 17.6528L32.6425 17.653ZM55.1285 18.3835C51.69 17.5635 51.079 16.9883 51.079 15.779C51.079 14.6365 52.1538 13.8678 53.754 13.8678C55.3045 13.8678 56.8408 14.4517 58.453 15.6535C58.5005 15.6897 58.5623 15.7042 58.6218 15.6947C58.6516 15.6903 58.6803 15.6799 58.7061 15.6641C58.7319 15.6484 58.7542 15.6276 58.7718 15.603L60.4505 13.2365C60.4837 13.1896 60.4977 13.1318 60.4898 13.0749C60.4819 13.018 60.4525 12.9663 60.4078 12.9303C58.4888 11.391 56.3295 10.6427 53.804 10.6427C50.092 10.6427 47.4978 12.8705 47.4978 16.0583C47.4978 19.4765 49.7353 20.687 53.602 21.6213C56.8908 22.379 57.447 23.0138 57.447 24.1488C57.447 25.4067 56.3245 26.189 54.5175 26.189C52.5105 26.189 50.872 25.5115 49.041 23.9275C48.9954 23.8889 48.9366 23.8694 48.877 23.873C48.8473 23.8752 48.8184 23.8832 48.7918 23.8966C48.7652 23.91 48.7416 23.9286 48.7223 23.9513L46.839 26.1912C46.8012 26.2362 46.7823 26.294 46.7863 26.3526C46.7903 26.4112 46.8169 26.4659 46.8605 26.5053C48.991 28.4078 51.6115 29.4112 54.4413 29.4112C58.4413 29.4112 61.026 27.2257 61.026 23.842C61.033 20.9867 59.3235 19.4055 55.1358 18.3867L55.1285 18.3835ZM70.0765 14.9925C68.343 14.9925 66.921 15.6755 65.7463 17.075V15.5C65.7463 15.3755 65.6463 15.2743 65.5228 15.2743H62.4433C62.3838 15.2746 62.3268 15.2986 62.285 15.3409C62.2431 15.3831 62.2196 15.4402 62.2198 15.4998V33.002C62.2198 33.1255 62.3198 33.2277 62.4433 33.2277H65.5228C65.5823 33.2274 65.6393 33.2034 65.6812 33.1611C65.723 33.1187 65.7465 33.0615 65.7463 33.002V27.4778C66.921 28.7928 68.343 29.4373 70.0763 29.4373C73.2988 29.4373 76.5613 26.9572 76.5613 22.2157C76.566 17.4732 73.3033 14.9923 70.0788 14.9923L70.0765 14.9925ZM72.98 22.2157C72.98 24.629 71.4938 26.315 69.363 26.315C67.2585 26.315 65.67 24.553 65.67 22.2157C65.67 19.8783 67.2585 18.1165 69.363 18.1165C71.458 18.1165 72.98 19.84 72.98 22.2157ZM84.9198 14.9923C80.7703 14.9923 77.5195 18.1873 77.5195 22.2673C77.5195 26.303 80.7488 29.4632 84.8698 29.4632C89.0335 29.4632 92.2938 26.2792 92.2938 22.2155C92.2938 18.1655 89.055 14.993 84.9198 14.993V14.9923ZM84.9198 26.3385C82.713 26.3385 81.0485 24.5645 81.0485 22.2143C81.0485 19.8533 82.656 18.1397 84.8698 18.1397C87.0908 18.1397 88.7648 19.913 88.7648 22.2658C88.7648 24.6265 87.1478 26.3385 84.9198 26.3385ZM101.154 15.274H97.7655V11.81C97.7655 11.6858 97.6655 11.5845 97.542 11.5845H94.4628C94.4029 11.5846 94.3456 11.6084 94.3033 11.6507C94.2609 11.6929 94.237 11.7502 94.2368 11.81V15.2738H92.7578C92.6983 15.2741 92.6413 15.2981 92.5994 15.3404C92.5576 15.3826 92.5341 15.4397 92.5343 15.4993V18.1453C92.5341 18.2048 92.5575 18.262 92.5994 18.3043C92.6413 18.3466 92.6982 18.3706 92.7578 18.371H94.2368V25.2185C94.2368 27.984 95.6138 29.387 98.3318 29.387C99.435 29.387 100.351 29.1585 101.214 28.6688C101.249 28.6496 101.278 28.6214 101.298 28.587C101.318 28.5527 101.328 28.5135 101.328 28.4737V25.953C101.328 25.9149 101.318 25.8774 101.299 25.8442C101.28 25.8109 101.253 25.783 101.221 25.763C101.189 25.7421 101.151 25.7302 101.113 25.7285C101.074 25.7268 101.036 25.7353 101.002 25.7533C100.41 26.0508 99.837 26.1885 99.1948 26.1885C98.208 26.1885 97.7658 25.739 97.7658 24.7355V18.3725H101.154C101.214 18.3721 101.271 18.3481 101.313 18.3058C101.355 18.2635 101.378 18.2063 101.378 18.1467V15.5007C101.379 15.4712 101.374 15.4418 101.363 15.4143C101.352 15.3867 101.336 15.3617 101.316 15.3406C101.295 15.3194 101.27 15.3028 101.243 15.2915C101.216 15.2802 101.186 15.2746 101.157 15.275L101.154 15.274ZM112.958 15.2875V14.862C112.958 13.6105 113.439 13.0525 114.513 13.0525C115.156 13.0525 115.672 13.18 116.25 13.3725C116.283 13.3839 116.319 13.387 116.355 13.3816C116.39 13.3761 116.423 13.3624 116.452 13.3414C116.481 13.3204 116.505 13.2928 116.521 13.2609C116.537 13.229 116.545 13.1937 116.545 13.158L116.544 10.5638C116.545 10.5153 116.53 10.4679 116.501 10.4289C116.472 10.3899 116.431 10.3613 116.385 10.3475C115.776 10.166 114.996 9.98 113.826 9.98C110.985 9.98 109.479 11.5813 109.479 14.609V15.2605H108C107.94 15.2606 107.883 15.2844 107.841 15.3267C107.798 15.3689 107.775 15.4262 107.774 15.486V18.1455C107.774 18.2698 107.877 18.3713 108 18.3713H109.479V28.9305C109.479 29.0565 109.582 29.1565 109.705 29.1565H112.782C112.908 29.1565 113.008 29.0565 113.008 28.9305V18.3717H115.883L120.287 28.9303C119.788 30.0385 119.296 30.2595 118.625 30.2595C118.083 30.2595 117.51 30.098 116.927 29.777C116.872 29.7491 116.808 29.7431 116.749 29.7603C116.719 29.7702 116.692 29.7861 116.669 29.807C116.647 29.8278 116.628 29.8532 116.616 29.8815L115.572 32.1715C115.548 32.2235 115.544 32.2827 115.563 32.3371C115.581 32.3914 115.619 32.4368 115.669 32.464C116.758 33.0537 117.74 33.3058 118.956 33.3058C121.229 33.3058 122.487 32.2453 123.593 29.3965L128.934 15.5955C128.947 15.5614 128.953 15.5243 128.948 15.4877C128.944 15.4511 128.931 15.4161 128.91 15.386C128.89 15.3558 128.862 15.3311 128.83 15.314C128.798 15.2969 128.763 15.288 128.727 15.288H125.521C125.474 15.2877 125.428 15.3021 125.39 15.3293C125.351 15.3564 125.322 15.3948 125.307 15.4392L122.023 24.8165L118.428 15.433C118.411 15.3905 118.383 15.3539 118.345 15.3281C118.308 15.3022 118.264 15.2882 118.218 15.288H112.958V15.2875ZM106.115 15.274H103.035C102.975 15.2743 102.918 15.2981 102.876 15.3403C102.833 15.3825 102.81 15.4398 102.809 15.4995V28.9305C102.809 29.0565 102.912 29.1565 103.035 29.1565H106.115C106.238 29.1565 106.341 29.0565 106.341 28.9305V15.5005C106.341 15.4708 106.335 15.4414 106.324 15.4139C106.312 15.3865 106.296 15.3615 106.275 15.3406C106.254 15.3196 106.229 15.303 106.201 15.2917C106.174 15.2804 106.144 15.2746 106.115 15.2747V15.274ZM104.593 9.158C103.373 9.158 102.384 10.1455 102.384 11.365C102.383 11.6551 102.441 11.9424 102.552 12.2104C102.663 12.4784 102.825 12.7219 103.03 12.9271C103.236 13.1322 103.479 13.2949 103.747 13.4059C104.015 13.5169 104.302 13.574 104.593 13.574C105.813 13.574 106.799 12.5855 106.799 11.365C106.799 10.7798 106.567 10.2185 106.153 9.80465C105.739 9.39079 105.178 9.1582 104.593 9.158Z" fill="#1ED760"/>
</g>
<defs>
<clipPath id="clip0_1_308">
<rect width="128" height="40" fill="white" transform="translate(0.9505)"/>
</clipPath>
</defs>
</svg>
